<svg width="27" height="27" viewBox="0 0 27 27" fill="none" xmlns="http://www.w3.org/2000/svg">
<g clip-path="url(#clip0_1_15)">
<path d="M0.576162 13.3384C0.575529 15.6069 1.1729 17.822 2.3088 19.7744L0.467529 26.445L7.34747 24.6551C9.25037 25.683 11.3824 26.2216 13.549 26.2217H13.5547C20.7071 26.2217 26.5293 20.4468 26.5323 13.3486C26.5337 9.90901 25.185 6.67466 22.7345 4.24131C20.2845 1.80817 17.026 0.467482 13.5542 0.465912C6.40099 0.465912 0.579221 6.24056 0.576268 13.3384" fill="url(#paint0_linear_1_15)"/>
<path d="M0.112852 13.3342C0.112113 15.6844 0.730898 17.9787 1.9073 20.0009L0 26.9107L7.12663 25.0566C9.09025 26.1189 11.3011 26.679 13.5507 26.6799H13.5565C20.9655 26.6799 26.9968 20.6972 27 13.3449C27.0013 9.78174 25.604 6.43113 23.066 3.9106C20.5277 1.3904 17.1527 0.00146512 13.5565 0C6.1463 0 0.115805 5.98186 0.112852 13.3342ZM4.35691 19.6527L4.09082 19.2335C2.97221 17.4687 2.3818 15.4292 2.38264 13.3351C2.38507 7.22397 7.39737 2.25209 13.5608 2.25209C16.5455 2.25335 19.3506 3.40786 21.4604 5.50256C23.5701 7.59747 24.7309 10.3822 24.7302 13.3441C24.7275 19.4552 19.7151 24.4277 13.5565 24.4277H13.5521C11.5468 24.4266 9.58015 23.8923 7.86502 22.8825L7.45685 22.6423L3.22777 23.7425L4.35691 19.6525V19.6527Z" fill="url(#paint1_linear_1_15)"/>
<path d="M10.1965 7.75968C9.94485 7.20471 9.68002 7.19351 9.44071 7.18378C9.24475 7.17541 9.02074 7.17604 8.79693 7.17604C8.57292 7.17604 8.20894 7.25965 7.90129 7.59297C7.59332 7.92659 6.72552 8.73283 6.72552 10.3726C6.72552 12.0125 7.92924 13.5972 8.09704 13.8198C8.26505 14.042 10.4208 17.5147 13.8351 18.8507C16.6726 19.961 17.25 19.7401 17.8659 19.6845C18.4818 19.629 19.8533 18.8784 20.1331 18.1002C20.4132 17.322 20.4132 16.6549 20.3292 16.5155C20.2452 16.3767 20.0212 16.2932 19.6853 16.1266C19.3493 15.9599 17.6979 15.1536 17.39 15.0424C17.082 14.9312 16.8581 14.8757 16.6341 15.2095C16.4101 15.5427 15.7668 16.2932 15.5708 16.5155C15.3749 16.7383 15.1788 16.7661 14.843 16.5993C14.5069 16.4321 13.4251 16.0806 12.1417 14.9452C11.1431 14.0618 10.4689 12.9708 10.273 12.637C10.077 12.3038 10.252 12.1232 10.4204 11.9571C10.5713 11.8078 10.7564 11.5679 10.9246 11.3734C11.092 11.1787 11.1479 11.0399 11.2599 10.8176C11.3721 10.5951 11.3159 10.4004 11.2321 10.2337C11.1479 10.067 10.4952 8.41866 10.1965 7.75968Z" fill="white"/>
</g>
<defs>
<linearGradient id="paint0_linear_1_15" x1="1303.71" y1="2598.38" x2="1303.71" y2="0.465912" gradientUnits="userSpaceOnUse">
<stop stop-color="#1FAF38"/>
<stop offset="1" stop-color="#60D669"/>
</linearGradient>
<linearGradient id="paint1_linear_1_15" x1="1350" y1="2691.07" x2="1350" y2="0" gradientUnits="userSpaceOnUse">
<stop stop-color="#F9F9F9"/>
<stop offset="1" stop-color="white"/>
</linearGradient>
<clipPath id="clip0_1_15">
<rect width="27" height="27" fill="white"/>
</clipPath>
</defs>
</svg>
